<svg width="157" height="168" viewBox="0 0 157 168" fill="none" xmlns="http://www.w3.org/2000/svg">
<ellipse cx="78.6713" cy="84.937" rx="78.1274" ry="69.8511" fill="#5669AA"/>
<path d="M57.3415 57.9601C58.1006 57.964 58.5618 57.3116 58.7185 56.7584C59.2082 52.8326 52.0804 51.89 48.8829 52.9315C45.6854 53.9729 43.4556 57.21 42.9051 59.3979C42.4647 61.1483 43.3624 62.0946 43.8663 62.349C44.621 62.8564 46.2728 63.2224 46.842 60.6266C47.5535 57.3818 48.85 56.7085 51.2078 56.1916C53.5657 55.6747 56.3231 57.955 57.3415 57.9601Z" fill="#272727"/>
<path d="M111.893 62.7683C112.404 63.3262 113.194 63.2195 113.705 62.9575C116.911 60.6434 112.771 54.7876 109.842 53.1575C106.913 51.5274 103.032 52.0998 101.057 53.1866C99.4772 54.0559 99.3927 55.3568 99.5479 55.8985C99.6879 56.7961 100.539 58.2535 102.825 56.9028C105.683 55.2145 107.055 55.7045 109.031 57.0775C111.007 58.4505 111.206 62.0198 111.893 62.7683Z" fill="#272727"/>
<ellipse cx="112.853" cy="33.7291" rx="12.4261" ry="5.50527" transform="rotate(34.4709 112.853 33.7291)" fill="white" fill-opacity="0.5"/>
<ellipse cx="130.419" cy="42.1805" rx="4.62079" ry="3.57867" transform="rotate(34.4709 130.419 42.1805)" fill="white" fill-opacity="0.5"/>
<path d="M85.0031 70.0516C87.6793 70.6256 87.8705 68.3774 87.6315 67.1816C87.1536 65.5074 85.72 59.7675 78.0737 59.7675C70.4274 59.7675 68.9937 68.6166 69.9495 70.0516C70.9053 71.4866 75.6842 68.6166 78.5516 68.6166C81.4189 68.6166 81.6578 69.3341 85.0031 70.0516Z" fill="#272727"/>
<path d="M36.0944 93.4608C34.9547 93.6148 34.7981 94.6035 34.8623 95.0786C34.4473 99.1663 34.8072 108.632 39.5664 113.795C44.3255 118.958 50.7434 121.961 53.3574 122.817C54.074 125.14 56.7227 129.475 61.5845 128.237C67.6617 126.691 66.3846 120.816 64.2284 119.172C62.0721 117.528 60.7437 118.433 59.4923 118.118C58.2409 117.804 58.9661 116.012 57.5094 115.967C56.344 115.931 55.0216 117.835 54.506 118.792C54.5702 119.267 54.1377 120.003 51.8942 119.145C49.0898 118.072 46.0159 116.794 41.6199 111.099C37.224 105.403 38.0453 95.3744 37.949 94.6617C37.8528 93.949 37.5191 93.2684 36.0944 93.4608Z" fill="#272727"/>
<path d="M130.315 93.6741C131.431 93.9426 131.486 94.942 131.374 95.4081C131.37 99.5164 130.048 108.896 124.796 113.55C119.545 118.205 112.866 120.543 110.183 121.13C109.234 123.368 106.163 127.412 101.461 125.689C95.5836 123.536 97.4502 117.821 99.7588 116.404C102.067 114.987 103.294 116.022 104.569 115.835C105.844 115.649 105.306 113.793 106.757 113.896C107.918 113.978 109.037 116.006 109.452 117.01C109.34 117.476 109.694 118.251 112.01 117.625C114.904 116.842 118.086 115.881 123.032 110.66C127.977 105.44 128.183 95.3803 128.351 94.6811C128.519 93.9819 128.92 93.3386 130.315 93.6741Z" fill="#272727"/>
<path d="M47.4864 161.419C47.4864 161.419 49.4018 149.439 52.275 146.564L53.7115 148.481C53.7115 148.481 51.3172 160.94 51.3172 163.576C51.3172 165.684 50.5191 166.052 50.1201 165.972C50.1201 165.972 40.7823 169.566 37.6698 165.972C36.9515 165.333 36.0895 163.432 38.3881 160.94C40.6866 158.448 45.4113 160.221 47.4864 161.419Z" fill="#333333"/>
<path d="M114.028 161.419C114.028 161.419 112.118 149.439 109.254 146.564L107.822 148.481C107.822 148.481 110.209 160.94 110.209 163.576C110.209 165.684 111.004 166.052 111.402 165.972C111.402 165.972 120.711 169.566 123.814 165.972C124.53 165.333 125.389 163.432 123.098 160.94C120.806 158.448 116.096 160.221 114.028 161.419Z" fill="#333333"/>
<path d="M97.4764 18.5955H56.1471L40.4326 0L69.7664 9.50729L65.2354 2.48813L84.669 12.4145V4.97627L97.4764 18.5955Z" fill="#EF7878"/>
<path d="M89.2607 70.4535C88.2916 77.1322 88.0506 89.8714 94.8393 87.399C101.628 84.9266 93.9488 75.0718 89.2607 70.4535Z" fill="#EEE7D5"/>
</svg>
