<svg width="15" height="14" viewBox="0 0 15 14" fill="none" xmlns="http://www.w3.org/2000/svg">
    <path d="M13.7349 7C13.7349 10.582 10.78 13.5 7.11745 13.5C3.45486 13.5 0.5 10.582 0.5 7C0.5 3.41796 3.45486 0.5 7.11745 0.5C10.78 0.5 13.7349 3.41796 13.7349 7Z" fill="#272727" stroke="#272727"/>
    <path d="M8.59439 2.276L8.35439 8.024H6.61439L6.37439 2.276H8.59439ZM7.51439 11.096C7.15439 11.096 6.85839 10.992 6.62639 10.784C6.40239 10.568 6.29039 10.304 6.29039 9.992C6.29039 9.672 6.40239 9.404 6.62639 9.188C6.85839 8.972 7.15439 8.864 7.51439 8.864C7.86639 8.864 8.15439 8.972 8.37839 9.188C8.61039 9.404 8.72639 9.672 8.72639 9.992C8.72639 10.304 8.61039 10.568 8.37839 10.784C8.15439 10.992 7.86639 11.096 7.51439 11.096Z" fill="white"/>
</svg>
