<svg width="32" height="26" viewBox="0 0 32 26" fill="none" xmlns="http://www.w3.org/2000/svg">
<path fill-rule="evenodd" clip-rule="evenodd" d="M1.81539 3.63077H29.9817C30.9838 3.63077 31.7971 2.81748 31.7971 1.81539C31.7971 0.813293 30.9838 0 29.9817 0H1.81539C0.813293 0 0 0.813293 0 1.81539C0 2.81748 0.813293 3.63077 1.81539 3.63077ZM1.81539 14.5231H29.9817C30.9838 14.5231 31.7971 13.7098 31.7971 12.7077C31.7971 11.7056 30.9838 10.8923 29.9817 10.8923H1.81539C0.813293 10.8923 0 11.7056 0 12.7077C0 13.7098 0.813293 14.5231 1.81539 14.5231ZM1.81539 25.4154H29.9817C30.9838 25.4154 31.7971 24.6021 31.7971 23.6C31.7971 22.5979 30.9838 21.7846 29.9817 21.7846H1.81539C0.813293 21.7846 0 22.5979 0 23.6C0 24.6021 0.813293 25.4154 1.81539 25.4154Z" fill="white"/>
</svg>
