<svg width="171" height="158" viewBox="0 0 171 158" fill="none" xmlns="http://www.w3.org/2000/svg">
<path d="M44.24 17.8511C31.9109 22.1689 20.5522 31.9065 16.414 36.2356C-22.1144 74.5224 21.7651 112.641 29.2568 116.014C36.7484 119.387 45.9833 129.413 64.5744 142.157C84.2584 155.65 105.021 147.048 123.215 134.23C141.409 121.411 170.313 101.677 170.313 72.3298C170.313 42.9821 117.016 15.4898 102.889 11.6105C88.7617 7.73121 92.1864 5.36991 87.0493 1.49062C81.9122 -2.38867 77.4172 2.16528 71.852 5.36991L71.5809 5.52607C66.0697 8.70053 59.4019 12.5412 44.24 17.8511Z" fill="#F2C94C"/>
<path d="M54.9338 55.4828C54.2895 55.2694 53.7168 55.6963 53.4305 56.1232C51.9272 59.3249 57.7256 62.0997 60.7322 62.0997C63.7387 62.0997 66.5306 59.9652 67.6043 58.2577C68.4634 56.8916 67.9623 55.8386 67.6043 55.4828C67.1033 54.8425 65.8004 54.0741 64.5978 56.1232C63.0945 58.6846 61.806 58.898 59.6584 58.6846C57.5108 58.4711 55.7981 55.7692 54.9338 55.4828Z" fill="#333333"/>
<path d="M106.537 55.4828C105.895 55.2694 105.324 55.6963 105.039 56.1232C103.54 59.3249 109.321 62.0997 112.318 62.0997C115.315 62.0997 118.098 59.9652 119.168 58.2577C120.025 56.8916 119.525 55.8386 119.168 55.4828C118.669 54.8425 117.37 54.0741 116.171 56.1232C114.673 58.6846 113.388 58.898 111.247 58.6846C109.106 58.4711 107.399 55.7692 106.537 55.4828Z" fill="#333333"/>
<ellipse cx="61.2369" cy="68.3417" rx="6.42004" ry="4.92203" transform="rotate(-12.9127 61.2369 68.3417)" fill="#D7903E"/>
<ellipse cx="118.468" cy="35.5695" rx="11.1097" ry="4.92203" transform="rotate(34.4709 118.468 35.5695)" fill="white" fill-opacity="0.5"/>
<ellipse cx="132.276" cy="47.7478" rx="4.13125" ry="3.19954" transform="rotate(34.4709 132.276 47.7478)" fill="white" fill-opacity="0.5"/>
<ellipse cx="112.169" cy="68.3416" rx="6.42004" ry="4.92203" transform="rotate(15.9282 112.169 68.3416)" fill="#D7903E"/>
<ellipse cx="70.3936" cy="18.6873" rx="1.71271" ry="1.59209" transform="rotate(-50.5673 70.3936 18.6873)" fill="#D7903E"/>
<ellipse cx="75.457" cy="10.4377" rx="1.71271" ry="1.59209" transform="rotate(-50.5673 75.457 10.4377)" fill="#D7903E"/>
<ellipse cx="81.8774" cy="22.4217" rx="1.71271" ry="1.59209" transform="rotate(-50.5673 81.8774 22.4217)" fill="#D7903E"/>
<ellipse cx="90.4372" cy="24.1338" rx="1.07919" ry="1.00319" transform="rotate(-50.5673 90.4372 24.1338)" fill="#D7903E"/>
<ellipse cx="91.2934" cy="15.5737" rx="1.71271" ry="1.59209" transform="rotate(-50.5673 91.2934 15.5737)" fill="#D7903E"/>
<ellipse cx="81.8774" cy="13.0057" rx="1.71271" ry="1.59209" transform="rotate(-50.5673 81.8774 13.0057)" fill="#D7903E"/>
<path d="M80.4246 61.4754C78.0319 60.9623 77.861 62.9722 78.0747 64.0414C78.502 65.5382 79.7837 70.67 86.6199 70.67C93.4562 70.67 94.738 62.7584 93.8834 61.4754C93.0289 60.1925 88.7563 62.7584 86.1927 62.7584C83.6291 62.7584 83.4155 62.1169 80.4246 61.4754Z" fill="#333333"/>
<path d="M86.3895 66.8346C86.3895 66.8346 81.8936 63.8645 80.395 68.5319C86.732 72.6052 91.0281 69.6634 92.384 67.6833C92.384 67.6833 89.6009 63.4402 86.3895 66.8346Z" fill="#EF7878"/>
<path d="M65.2689 101.789L84.1773 126.301C84.1773 126.301 84.4804 126.952 85.5498 126.729C86.6193 126.505 101.047 109.444 106.663 104.343C113.453 98.1739 110.522 85.5183 101.042 83.4058C94.1336 81.8666 88.6914 85.9808 85.9704 91.7408C85.1186 86.4641 75.8798 80.6482 67.7394 84.6094C59.8482 88.4493 62.3731 97.3636 65.2689 101.789Z" fill="#EF7878"/>
<path d="M47.759 76.1963C46.7308 76.1963 46.4737 77.0536 46.4737 77.4822C45.6168 81.0543 44.8028 89.4843 48.4016 94.628C52.0005 99.7718 57.3273 103.201 59.5408 104.273C59.8979 106.416 61.7258 110.574 66.1815 110.059C71.7511 109.416 71.3227 104.058 69.6089 102.344C67.8952 100.629 66.6099 101.272 65.5389 100.843C64.4678 100.415 65.3246 98.9145 64.0394 98.7002C63.0111 98.5287 61.6116 100.058 61.0403 100.843C61.0403 101.272 60.5691 101.872 58.684 100.843C56.3276 99.5574 53.757 98.0572 50.5438 92.4848C47.3306 86.9124 49.2585 78.1252 49.2585 77.4822C49.2585 76.8393 49.0443 76.1963 47.759 76.1963Z" fill="#333333"/>
<path d="M126.476 76.1963C127.503 76.1963 127.759 77.0536 127.759 77.4822C128.615 81.0543 129.427 89.4843 125.835 94.628C122.243 99.7718 116.926 103.201 114.717 104.273C114.36 106.416 112.536 110.574 108.088 110.059C102.529 109.416 102.957 104.058 104.667 102.344C106.378 100.629 107.661 101.272 108.73 100.843C109.799 100.415 108.944 98.9145 110.227 98.7002C111.253 98.5287 112.65 100.058 113.22 100.843C113.22 101.272 113.69 101.872 115.572 100.843C117.924 99.5574 120.49 98.0572 123.697 92.4848C126.904 86.9124 124.98 78.1252 124.98 77.4822C124.98 76.8393 125.194 76.1963 126.476 76.1963Z" fill="#333333"/>
<path d="M58.1577 151.999C58.1577 151.999 59.8702 141.288 62.4389 138.717L63.7233 140.431C63.7233 140.431 61.5827 151.57 61.5827 153.927C61.5827 155.812 60.8691 156.14 60.5123 156.069C60.5123 156.069 52.1639 159.282 49.381 156.069C48.7389 155.498 47.9682 153.798 50.0232 151.57C52.0783 149.343 56.3024 150.928 58.1577 151.999Z" fill="#333333"/>
<path d="M117.649 151.999C117.649 151.999 115.942 141.288 113.381 138.717L112.101 140.431C112.101 140.431 114.235 151.57 114.235 153.927C114.235 155.812 114.946 156.14 115.302 156.069C115.302 156.069 123.624 159.282 126.398 156.069C127.039 155.498 127.807 153.798 125.758 151.57C123.71 149.343 119.498 150.928 117.649 151.999Z" fill="#333333"/>
</svg>
