<svg width="17" height="17" viewBox="0 0 17 17" fill="none" xmlns="http://www.w3.org/2000/svg">
    <path d="M6.93015 13.8654C5.32583 13.8644 3.77151 13.3072 2.532 12.289C1.29249 11.2707 0.444473 9.85432 0.13244 8.28109C-0.179593 6.70786 0.0636595 5.07513 0.820752 3.66109C1.57785 2.24705 2.80194 1.13919 4.28447 0.526243C5.76701 -0.0867012 7.41627 -0.166798 8.95126 0.299598C10.4862 0.765994 11.812 1.75003 12.7026 3.08404C13.5932 4.41806 13.9937 6.01952 13.8356 7.61558C13.6776 9.21165 12.9709 10.7036 11.836 11.8371C11.1923 12.4817 10.4275 12.9927 9.58556 13.3408C8.74365 13.6889 7.84122 13.8672 6.93015 13.8654ZM6.93015 1.41125C5.65242 1.41214 4.41452 1.85589 3.42736 2.66691C2.4402 3.47792 1.76486 4.60602 1.5164 5.85901C1.26793 7.11199 1.46171 8.41234 2.06473 9.53851C2.66774 10.6647 3.64268 11.547 4.82344 12.0351C6.0042 12.5232 7.31773 12.587 8.54023 12.2155C9.76274 11.844 10.8186 11.0602 11.5279 9.99777C12.2372 8.93529 12.556 7.65982 12.4301 6.38867C12.3042 5.11751 11.7414 3.92932 10.8374 3.02653C10.3247 2.51327 9.71553 2.10636 9.045 1.82916C8.37446 1.55196 7.65575 1.40994 6.93015 1.41125Z" fill="black"/>
    <path d="M16.294 17C16.1068 17 15.9272 16.9255 15.7948 16.7931L10.8374 11.8372C10.7088 11.704 10.6376 11.5257 10.6392 11.3406C10.6408 11.1555 10.7151 10.9784 10.846 10.8475C10.9769 10.7166 11.154 10.6424 11.3392 10.6408C11.5244 10.6392 11.7027 10.7103 11.8359 10.8389L16.7933 15.7949C16.892 15.8936 16.9593 16.0194 16.9865 16.1563C17.0137 16.2933 16.9997 16.4352 16.9463 16.5642C16.8929 16.6931 16.8024 16.8034 16.6863 16.881C16.5702 16.9585 16.4337 17 16.294 17Z" fill="black"/>
</svg>
