<svg width="14" height="13" viewBox="0 0 14 13" fill="none" xmlns="http://www.w3.org/2000/svg">
<path d="M12.7349 6.5C12.7349 9.8059 10.0077 12.5 6.62585 12.5C3.24403 12.5 0.516785 9.8059 0.516785 6.5C0.516785 3.1941 3.24403 0.5 6.62585 0.5C10.0077 0.5 12.7349 3.1941 12.7349 6.5Z" fill="#272727" stroke="black"/>
<path d="M6.60538 2.59C7.31872 2.59 7.88872 2.77667 8.31538 3.15C8.74872 3.52333 8.96538 4.05 8.96538 4.73C8.96538 5.35667 8.75872 5.84667 8.34538 6.2C7.93872 6.54667 7.39872 6.72333 6.72538 6.73L6.67538 7.48H5.17538L5.12538 5.62H5.72538C6.23872 5.62 6.62872 5.55667 6.89538 5.43C7.16872 5.30333 7.30538 5.07333 7.30538 4.74C7.30538 4.50667 7.24205 4.32333 7.11538 4.19C6.98872 4.05667 6.81205 3.99 6.58538 3.99C6.34538 3.99 6.15872 4.06 6.02538 4.2C5.89205 4.33333 5.82538 4.51667 5.82538 4.75H4.21538C4.20205 4.34333 4.28538 3.97667 4.46538 3.65C4.65205 3.32333 4.92538 3.06667 5.28538 2.88C5.65205 2.68667 6.09205 2.59 6.60538 2.59ZM5.94538 10.08C5.64538 10.08 5.39872 9.99333 5.20538 9.82C5.01872 9.64 4.92538 9.42 4.92538 9.16C4.92538 8.89333 5.01872 8.67 5.20538 8.49C5.39872 8.31 5.64538 8.22 5.94538 8.22C6.23872 8.22 6.47872 8.31 6.66538 8.49C6.85872 8.67 6.95538 8.89333 6.95538 9.16C6.95538 9.42 6.85872 9.64 6.66538 9.82C6.47872 9.99333 6.23872 10.08 5.94538 10.08Z" fill="white"/>
</svg>
