<svg width="26" height="26" viewBox="0 0 26 26" fill="none" xmlns="http://www.w3.org/2000/svg">
<path d="M23.4 0.0349121H2.6C1.1661 0.0349121 0 1.20101 0 2.63491V18.2349C0 19.6688 1.1661 20.8349 2.6 20.8349H6.5V25.732L14.6601 20.8349H23.4C24.8339 20.8349 26 19.6688 26 18.2349V2.63491C26 1.20101 24.8339 0.0349121 23.4 0.0349121ZM23.4 18.2349H13.9399L9.1 21.1378V18.2349H2.6V2.63491H23.4V18.2349Z" fill="#38514B"/>
<path d="M10.0191 15.254L13 12.2731L15.9809 15.254L17.8191 13.4158L14.8382 10.4349L17.8191 7.45404L15.9809 5.61584L13 8.59675L10.0191 5.61584L8.18091 7.45404L11.1618 10.4349L8.18091 13.4158L10.0191 15.254Z" fill="#38514B"/>
</svg>
