<svg
                        width="82"
                        height="45"
                        viewBox="0 0 82 45"
                        fill="none"
                        xmlns="http://www.w3.org/2000/svg"
                    >
                        <rect
                            width="4.27632"
                            height="44.0104"
                            transform="matrix(-1 0 0 1 4.27637 0)"
                            fill="#38514B"
                        />
                        <rect
                            width="8.55263"
                            height="44.0104"
                            transform="matrix(-1 0 0 1 81.25 0)"
                            fill="#38514B"
                        />
                        <rect
                            width="4.27632"
                            height="44.0104"
                            transform="matrix(-1 0 0 1 12.8291 0)"
                            fill="#38514B"
                        />
                        <rect
                            width="4.27632"
                            height="44.0104"
                            transform="matrix(-1 0 0 1 68.4209 0)"
                            fill="#38514B"
                        />
                        <rect
                            width="8.55263"
                            height="44.0104"
                            transform="matrix(-1 0 0 1 25.6582 0)"
                            fill="#38514B"
                        />
                        <rect
                            width="4.27632"
                            height="44.0104"
                            transform="matrix(-1 0 0 1 34.2109 0)"
                            fill="#38514B"
                        />
                        <rect
                            width="4.27632"
                            height="44.0104"
                            transform="matrix(-1 0 0 1 59.8677 0)"
                            fill="#38514B"
                        />
                        <rect
                            width="12.8289"
                            height="44.0104"
                            transform="matrix(-1 0 0 1 51.3149 0)"
                            fill="#38514B"
                        />
                    </svg>