<svg width="20" height="21" viewBox="0 0 20 21" fill="none" xmlns="http://www.w3.org/2000/svg">
    <path fill-rule="evenodd" clip-rule="evenodd" d="M9.6143 0.890817C9.44303 0.899764 9.29471 1.0216 9.24159 1.19697L7.16802 7.8886H0.527144C0.34901 7.88921 0.19131 8.0126 0.135903 8.19472C0.0804963 8.37683 0.139865 8.57664 0.283193 8.69043L5.67721 12.9328L3.60363 19.8577C3.54826 20.0411 3.60915 20.242 3.75438 20.355C3.89961 20.468 4.09602 20.4674 4.24061 20.3534L9.63462 16.111L15.0286 20.3534C15.1732 20.4674 15.3696 20.468 15.5149 20.355C15.6601 20.242 15.721 20.0411 15.6656 19.8577L13.592 12.9328L18.9861 8.69043C19.1294 8.57664 19.1888 8.37683 19.1333 8.19472C19.0779 8.0126 18.9202 7.88921 18.7421 7.8886H12.1012L10.0277 1.19697C9.9699 1.00625 9.80053 0.880808 9.6143 0.890817Z" fill="#272727"/>
</svg>
