<svg width="12" height="12" viewBox="0 0 13 13" fill="none" xmlns="http://www.w3.org/2000/svg">
<path fill-rule="evenodd" clip-rule="evenodd" d="M5.99487 0.000343149C5.88678 0.00584208 5.79318 0.0807248 5.75965 0.188513L4.45099 4.30137H0.259864C0.147442 4.30175 0.0479159 4.37759 0.012948 4.48952C-0.0220199 4.60146 0.0154486 4.72426 0.105904 4.7942L3.51013 7.40171L2.20147 11.6579C2.16652 11.7706 2.20495 11.8941 2.29661 11.9636C2.38826 12.033 2.51222 12.0326 2.60347 11.9626L6.0077 9.35509L9.41192 11.9626C9.50317 12.0326 9.62713 12.033 9.71878 11.9636C9.81044 11.8941 9.84887 11.7706 9.81392 11.6579L8.50527 7.40171L11.9095 4.7942C11.9999 4.72426 12.0374 4.60146 12.0024 4.48952C11.9675 4.37759 11.868 4.30175 11.7555 4.30137H7.5644L6.25574 0.188513C6.21929 0.0712941 6.1124 -0.00580882 5.99487 0.000343149Z" fill="#F2C94C"/>
</svg>
