<svg width="20" height="21" viewBox="0 0 20 21" fill="none" xmlns="http://www.w3.org/2000/svg">
    <path fill-rule="evenodd" clip-rule="evenodd" d="M9.6529 0.890817C9.48164 0.899764 9.33332 1.0216 9.2802 1.19697L7.20662 7.8886H0.565749C0.387615 7.88921 0.229915 8.0126 0.174508 8.19472C0.119101 8.37683 0.17847 8.57664 0.321798 8.69043L5.71581 12.9328L3.64223 19.8577C3.58686 20.0411 3.64776 20.242 3.79298 20.355C3.93821 20.468 4.13462 20.4674 4.27921 20.3534L9.67323 16.111L15.0672 20.3534C15.2118 20.4674 15.4082 20.468 15.5535 20.355C15.6987 20.242 15.7596 20.0411 15.7042 19.8577L13.6306 12.9328L19.0247 8.69043C19.168 8.57664 19.2274 8.37683 19.1719 8.19472C19.1165 8.0126 18.9588 7.88921 18.7807 7.8886H12.1398L10.0663 1.19697C10.0085 1.00625 9.83913 0.880808 9.6529 0.890817Z" fill="#CCCCCC"/>
</svg>
