<svg width="72" height="57" viewBox="0 0 72 57" fill="none" xmlns="http://www.w3.org/2000/svg">
<path d="M3.74082 48.3526V49.3129H6.16924V51.1563H3.74082V52.2601H6.50039V54.2139H1.29033V46.3988H6.50039V48.3526H3.74082ZM12.9872 46.3988V51.4433C12.9872 52.3778 12.7406 53.088 12.2476 53.5736C11.7619 54.052 11.0775 54.2911 10.1945 54.2911C9.2452 54.2911 8.49092 54.0299 7.93165 53.5074C7.37238 52.9849 7.09274 52.2233 7.09274 51.2225H9.51012C9.51012 51.5389 9.56163 51.7634 9.66465 51.8958C9.76768 52.0209 9.90749 52.0835 10.0841 52.0835C10.2313 52.0835 10.3453 52.0357 10.4263 51.94C10.5072 51.8443 10.5477 51.6788 10.5477 51.4433V46.3988H12.9872ZM24.0118 46.3988L21.3847 54.2139H18.2167L15.5896 46.3988H18.1946L19.8062 51.7744L21.4068 46.3988H24.0118ZM27.1212 48.3526V49.3129H29.5496V51.1563H27.1212V52.2601H29.8808V54.2139H24.6707V46.3988H29.8808V48.3526H27.1212ZM35.7052 49.07C35.6096 48.9155 35.4734 48.7978 35.2968 48.7168C35.1202 48.6285 34.9068 48.5844 34.6566 48.5844C34.1856 48.5844 33.8214 48.7389 33.5638 49.048C33.3063 49.3497 33.1775 49.7655 33.1775 50.2953C33.1775 50.9061 33.321 51.3623 33.608 51.664C33.895 51.9657 34.3365 52.1166 34.9326 52.1166C35.4992 52.1166 35.9554 51.8885 36.3013 51.4322H34.3475V49.6992H38.3323V52.1497C37.9938 52.7311 37.5266 53.2315 36.9305 53.6509C36.3344 54.063 35.5801 54.2691 34.6677 54.2691C33.8582 54.2691 33.1517 54.1035 32.5483 53.7723C31.9522 53.4338 31.4923 52.9629 31.1685 52.3594C30.8521 51.756 30.6939 51.068 30.6939 50.2953C30.6939 49.5226 30.8521 48.8346 31.1685 48.2311C31.4923 47.6277 31.9522 47.1604 32.5483 46.8293C33.1444 46.4908 33.8435 46.3215 34.6456 46.3215C35.6685 46.3215 36.5 46.568 37.1402 47.0611C37.7878 47.5541 38.1705 48.2238 38.2882 49.07H35.7052ZM44.3366 53.0328H41.7316L41.3453 54.2139H38.7734L41.6323 46.3988H44.4581L47.3059 54.2139H44.723L44.3366 53.0328ZM43.7406 51.1894L43.0341 49.0149L42.3277 51.1894H43.7406ZM55.468 54.2139H53.0175L50.4235 50.2843V54.2139H47.973V46.3988H50.4235L53.0175 50.3946V46.3988H55.468V54.2139ZM59.7431 54.2911C58.8085 54.2911 58.0358 54.074 57.4251 53.6399C56.8216 53.1983 56.4942 52.5545 56.4427 51.7082H59.0477C59.0845 52.1571 59.2832 52.3815 59.6437 52.3815C59.7762 52.3815 59.8866 52.3521 59.9749 52.2932C60.0706 52.227 60.1184 52.1276 60.1184 51.9952C60.1184 51.8112 60.019 51.664 59.8204 51.5537C59.6217 51.4359 59.3126 51.3035 58.8931 51.1563C58.3927 50.9797 57.977 50.8067 57.6458 50.6375C57.322 50.4682 57.0424 50.2217 56.8069 49.8979C56.5714 49.5741 56.4574 49.1584 56.4647 48.6506C56.4647 48.1428 56.5935 47.7123 56.8511 47.3591C57.116 46.9985 57.4729 46.7263 57.9218 46.5423C58.378 46.3583 58.8895 46.2663 59.4561 46.2663C60.4127 46.2663 61.1707 46.4871 61.73 46.9286C62.2966 47.3702 62.5946 47.992 62.6241 48.7941H59.9859C59.9786 48.5733 59.9234 48.4151 59.8204 48.3194C59.7173 48.2238 59.5922 48.1759 59.4451 48.1759C59.342 48.1759 59.2574 48.2127 59.1912 48.2863C59.1249 48.3526 59.0918 48.4482 59.0918 48.5733C59.0918 48.7499 59.1875 48.8971 59.3788 49.0149C59.5775 49.1252 59.8903 49.2614 60.3171 49.4233C60.8101 49.6072 61.2149 49.7839 61.5313 49.9531C61.8551 50.1224 62.1347 50.3578 62.3702 50.6596C62.6057 50.9613 62.7234 51.3402 62.7234 51.7965C62.7234 52.2748 62.6057 52.7053 62.3702 53.088C62.1347 53.4633 61.7925 53.7576 61.3436 53.971C60.8947 54.1844 60.3612 54.2911 59.7431 54.2911ZM68.4191 54.2139L66.1453 50.8251V54.2139H63.6948V46.3988H66.1453V49.6882L68.386 46.3988H71.1566L68.4633 50.1408L71.3332 54.2139H68.4191Z" fill="#272727"/>
<circle cx="36.5654" cy="20.8069" r="20.2" fill="#EF7878"/>
<path d="M43.3704 24.3198L47.106 24.3198C47.4548 24.3198 47.7286 24.046 47.7286 23.6972L47.7286 13.7357C47.7286 13.3869 47.4548 13.1131 47.106 13.1131L43.3704 13.1131C43.0216 13.1131 42.7481 13.3869 42.7481 13.7357L42.7481 23.6972C42.7477 24.046 43.0216 24.3198 43.3704 24.3198Z" fill="#272727"/>
<path d="M25.4172 23.1396C25.4172 24.1541 26.1138 25.1809 27.4441 25.1809L33.4758 25.1809C32.6141 26.7223 32.3608 28.8903 32.9597 30.4765C33.3997 31.6432 34.2406 32.324 35.3287 32.3933L35.3463 32.3947C36.0544 32.4382 36.6673 31.9077 36.7262 31.2007C36.8812 29.6274 37.5706 26.8447 38.5586 25.8567C39.3905 25.0248 40.1025 24.6763 41.2829 24.0992C41.4537 24.0156 41.6403 23.9245 41.8377 23.8261C41.8341 23.7834 41.832 23.7407 41.832 23.6969L41.832 13.8371C41.6895 13.7883 41.5488 13.7398 41.4106 13.6924C39.4626 13.021 37.7791 12.4414 35.206 12.4414L30.3295 12.4414C28.9988 12.4414 28.3026 13.4685 28.3026 14.4827C28.3026 14.7838 28.3636 15.0856 28.4845 15.3619C28.0413 15.4416 27.6534 15.6548 27.3659 15.981C27.0397 16.3517 26.8599 16.8445 26.8599 17.3684C26.8599 17.6685 26.9209 17.9703 27.0415 18.2459C25.9731 18.4304 25.4168 19.3473 25.4168 20.2538C25.4168 20.7796 25.6042 21.3089 25.9695 21.6965C25.6049 22.0845 25.4172 22.6138 25.4172 23.1396Z" fill="#272727"/>
</svg>
