<svg width="58" height="56" viewBox="0 0 58 56" fill="none" xmlns="http://www.w3.org/2000/svg">
<path d="M9.3689 46.0333L6.7418 53.8484H3.57383L0.946726 46.0333H3.55175L5.16333 51.4089L6.76388 46.0333H9.3689ZM12.4783 47.9871V48.9474H14.9067V50.7908H12.4783V51.8946H15.2379V53.8484H10.0278V46.0333H15.2379V47.9871H12.4783ZM21.0624 48.7046C20.9667 48.55 20.8306 48.4323 20.654 48.3513C20.4773 48.263 20.2639 48.2189 20.0137 48.2189C19.5428 48.2189 19.1785 48.3734 18.921 48.6825C18.6634 48.9842 18.5346 49.4 18.5346 49.9298C18.5346 50.5406 18.6781 50.9968 18.9651 51.2986C19.2521 51.6003 19.6936 51.7511 20.2897 51.7511C20.8563 51.7511 21.3126 51.523 21.6584 51.0668H19.7047V49.3337H23.6895V51.7842C23.351 52.3656 22.8837 52.866 22.2876 53.2854C21.6916 53.6975 20.9373 53.9036 20.0248 53.9036C19.2153 53.9036 18.5089 53.738 17.9054 53.4069C17.3094 53.0684 16.8494 52.5974 16.5257 51.994C16.2092 51.3905 16.051 50.7025 16.051 49.9298C16.051 49.1571 16.2092 48.4691 16.5257 47.8657C16.8494 47.2622 17.3094 46.795 17.9054 46.4638C18.5015 46.1253 19.2006 45.956 20.0027 45.956C21.0256 45.956 21.8571 46.2026 22.4973 46.6956C23.1449 47.1886 23.5276 47.8583 23.6453 48.7046H21.0624ZM29.6938 52.6673H27.0887L26.7024 53.8484H24.1305L26.9894 46.0333H29.8152L32.663 53.8484H30.0801L29.6938 52.6673ZM29.0977 50.8239L28.3912 48.6494L27.6848 50.8239H29.0977ZM40.8251 53.8484H38.3746L35.7807 49.9188V53.8484H33.3302V46.0333H35.7807L38.3746 50.0292V46.0333H40.8251V53.8484ZM45.1002 53.9257C44.1656 53.9257 43.393 53.7086 42.7822 53.2744C42.1788 52.8329 41.8513 52.189 41.7998 51.3427H44.4048C44.4416 51.7916 44.6403 52.016 45.0009 52.016C45.1333 52.016 45.2437 51.9866 45.332 51.9277C45.4277 51.8615 45.4755 51.7622 45.4755 51.6297C45.4755 51.4457 45.3762 51.2986 45.1775 51.1882C44.9788 51.0704 44.6697 50.938 44.2503 50.7908C43.7499 50.6142 43.3341 50.4413 43.0029 50.272C42.6792 50.1027 42.3995 49.8562 42.164 49.5324C41.9286 49.2086 41.8145 48.7929 41.8219 48.2851C41.8219 47.7774 41.9506 47.3469 42.2082 46.9936C42.4731 46.6331 42.83 46.3608 43.2789 46.1768C43.7352 45.9928 44.2466 45.9009 44.8132 45.9009C45.7699 45.9009 46.5278 46.1216 47.0871 46.5631C47.6537 47.0047 47.9518 47.6265 47.9812 48.4286H45.3431C45.3357 48.2078 45.2805 48.0496 45.1775 47.954C45.0745 47.8583 44.9494 47.8105 44.8022 47.8105C44.6992 47.8105 44.6145 47.8473 44.5483 47.9209C44.4821 47.9871 44.449 48.0827 44.449 48.2078C44.449 48.3845 44.5446 48.5316 44.736 48.6494C44.9346 48.7598 45.2474 48.8959 45.6742 49.0578C46.1672 49.2418 46.572 49.4184 46.8884 49.5876C47.2122 49.7569 47.4918 49.9924 47.7273 50.2941C47.9628 50.5958 48.0805 50.9748 48.0805 51.431C48.0805 51.9093 47.9628 52.3398 47.7273 52.7225C47.4918 53.0978 47.1496 53.3921 46.7008 53.6055C46.2519 53.819 45.7184 53.9257 45.1002 53.9257ZM53.7763 53.8484L51.5024 50.4596V53.8484H49.0519V46.0333H51.5024V49.3227L53.7432 46.0333H56.5138L53.8204 49.7753L56.6904 53.8484H53.7763Z" fill="#38514B"/>
<circle cx="29.5653" cy="20.8553" r="20.2" fill="#38514B"/>
<path d="M22.7751 16.6804H19.0395C18.6907 16.6804 18.4169 16.9542 18.4169 17.3031V27.2645C18.4169 27.6133 18.6907 27.8872 19.0395 27.8872H22.7751C23.1239 27.8872 23.3974 27.6133 23.3974 27.2645V17.3031C23.3978 16.9542 23.1239 16.6804 22.7751 16.6804Z" fill="#F5C300"/>
<path d="M40.7874 17.8607C40.7874 16.8461 40.0908 15.8194 38.7604 15.8194H32.7287C33.5904 14.278 33.8438 12.11 33.2448 10.5237C32.8048 9.35701 31.9639 8.67621 30.8758 8.60695L30.8582 8.60551C30.1502 8.56209 29.5372 9.09251 29.4783 9.79951C29.3233 11.3728 28.6339 14.1556 27.6459 15.1436C26.814 15.9755 26.102 16.3239 24.9216 16.901C24.7508 16.9846 24.5642 17.0758 24.3668 17.1741C24.3704 17.2168 24.3726 17.2595 24.3726 17.3033V27.1632C24.515 27.212 24.6557 27.2604 24.7939 27.3078C26.7419 27.9793 28.4254 28.5589 30.9986 28.5589H35.875C37.2057 28.5589 37.902 27.5317 37.902 26.5176C37.902 26.2165 37.841 25.9146 37.72 25.6383C38.1632 25.5586 38.5512 25.3455 38.8386 25.0192C39.1649 24.6485 39.3447 24.1558 39.3447 23.6318C39.3447 23.3318 39.2836 23.03 39.1631 22.7543C40.2314 22.5699 40.7877 21.6529 40.7877 20.7464C40.7877 20.2207 40.6004 19.6913 40.235 19.3037C40.5997 18.9158 40.7874 18.3864 40.7874 17.8607Z" fill="#F5C300"/>
</svg>
